<svg xmlns="http://www.w3.org/2000/svg" viewBox="0 0 291.57 130.16"><defs><style>.cls-1{fill:#f39124;}</style></defs><g id="ver._morado" data-name="ver. morado"><path class="cls-1" d="M237,54.24l-7.93-1.64,1.42-3.79-3.85,1.4L225,42.09l-1.75,8.08-3.75-1.42,1.34,3.79-7.92,1.7,8,1.75-1.39,3.73,3.75-1.35L225,66.32l1.7-8,3.72,1.39-1.32-3.81Zm-187.71-34a27,27,0,0,0-9.2,1.6c-1-3.46-2.12-7-3.42-10.52l-8.49,3.11c1.47,4,2.73,8,3.81,12A27.15,27.15,0,0,0,22.13,46.8c-1,4.63-8.72,42.47.38,62.94,2.44,5.49,5.69,6.7,8.07,6.7a7.36,7.36,0,0,0,2.73-.53c10.1-4.09,12.43-31.87,12.8-37.4.08-1.27.16-2.65.21-4.15a29.23,29.23,0,0,0,3,.16,27.17,27.17,0,1,0,0-54.33ZM34.44,37a158.49,158.49,0,0,1,2.76,23.8A18,18,0,0,1,34.44,37Zm-3.56,69.26a2,2,0,0,1-.1-.21c-4.81-10.83-4-28.44-2.39-41.37a27.38,27.38,0,0,0,8.88,7C36.78,89,33.53,102,30.88,106.27Zm18.41-40.8a18.12,18.12,0,0,1-2.87-.25,171.38,171.38,0,0,0-4.08-34.59,17.89,17.89,0,0,1,6.95-1.39,18.12,18.12,0,1,1,0,36.23ZM270.93,95.62a13.4,13.4,0,0,0-3.75-3.82,16.51,16.51,0,0,0-4.37-2.07c-1.47-.44-2.62-.74-3.44-.9-2.77-.7-5-1.28-6.73-1.74a24.8,24.8,0,0,1-4-1.36,4.44,4.44,0,0,1-2-1.49,3.9,3.9,0,0,1-.5-2.11,4.17,4.17,0,0,1,.62-2.35,5.31,5.31,0,0,1,1.58-1.55,6,6,0,0,1,2.14-.87,11.07,11.07,0,0,1,2.36-.25,16.33,16.33,0,0,1,3.31.31,8.18,8.18,0,0,1,2.7,1,5.42,5.42,0,0,1,1.89,2,7.72,7.72,0,0,1,.84,3.29H271a13.56,13.56,0,0,0-1.45-6.54,12.86,12.86,0,0,0-3.94-4.44A17,17,0,0,0,260,70.32a28.53,28.53,0,0,0-6.67-.77,23,23,0,0,0-5.95.8A16.72,16.72,0,0,0,242,72.83,13.21,13.21,0,0,0,238.19,77a11.6,11.6,0,0,0-1.45,5.92,10.92,10.92,0,0,0,1.14,5.18,11.06,11.06,0,0,0,3,3.56A16.54,16.54,0,0,0,245.11,94a41.64,41.64,0,0,0,4.83,1.51c1.61.46,3.21.87,4.78,1.24a30.45,30.45,0,0,1,4.21,1.31,9,9,0,0,1,3,1.86,3.89,3.89,0,0,1,1.15,2.91,4.26,4.26,0,0,1-.87,2.76,6.07,6.07,0,0,1-2.17,1.7,9.4,9.4,0,0,1-2.79.84,18.64,18.64,0,0,1-2.79.22,14.82,14.82,0,0,1-3.72-.47,9.26,9.26,0,0,1-3.13-1.42,7.08,7.08,0,0,1-2.14-2.51,8.13,8.13,0,0,1-.81-3.79h-9.42a14.55,14.55,0,0,0,1.49,7.07,13.8,13.8,0,0,0,4.18,4.9A17.89,17.89,0,0,0,247,115a27.92,27.92,0,0,0,7.1.9,27.32,27.32,0,0,0,8-1,17,17,0,0,0,5.77-3,12.22,12.22,0,0,0,3.5-4.49,13.49,13.49,0,0,0,1.18-5.65A10.86,10.86,0,0,0,270.93,95.62ZM128.33,107V69.09h-8.59v38.43q0,4.33,3.21,6.18a15,15,0,0,0,7.75,1.81h3.83v-6.24h-3C129.4,109.27,128.33,108.52,128.33,107ZM195.1,74.46h-.17v-4.8h-8.59V115h8.59V87.66q.07-5,2.72-7.22a7.86,7.86,0,0,1,5.65-2.27A8.71,8.71,0,0,1,209,80.45l6.27-7.88a13.83,13.83,0,0,0-20.12,1.89ZM179.35,84c-.19-1-.42-2.09-.68-3.19-.87-3.62-2.49-10.36-8.19-10.54a6.5,6.5,0,0,0-3.86,1.16,22.84,22.84,0,1,0,2.5,41.3,19.77,19.77,0,0,0,7.32,3.24l2-8.16a9.9,9.9,0,0,1-2.34-.93A22.79,22.79,0,0,0,179.35,84Zm-21.13,21.5a12.84,12.84,0,1,1,0-25.67,13.25,13.25,0,0,1,3,.37,47.18,47.18,0,0,0-1.67,8.57l-.07.47c-.51,6.55.68,11.67,2.72,15.61A12.68,12.68,0,0,1,158.22,105.48ZM169,99.76c-3.09-3.35-3.57-10.44,0-14.56C169,85.2,173.81,93,169,99.76ZM220.46,115h9V69.09h-9ZM91.24,69.37c-12.32,0-22.34,10.26-22.34,22.88s10,22.88,22.34,22.88,22.34-10.27,22.34-22.88S103.56,69.37,91.24,69.37Zm0,36.54a13.66,13.66,0,1,1,13.34-13.66A13.52,13.52,0,0,1,91.24,105.91Z"/></g></svg>