<svg xmlns="http://www.w3.org/2000/svg" xmlns:xlink="http://www.w3.org/1999/xlink" viewBox="0 0 291.57 127.62"><defs><style>.cls-1{fill:url(#Degradado_sin_nombre_10);}.cls-2{fill:url(#Degradado_sin_nombre_10-2);}.cls-3{fill:url(#Degradado_sin_nombre_14);}.cls-4{fill:#3d2963;}.cls-5{fill:url(#Degradado_sin_nombre_10-3);}.cls-6{fill:url(#Degradado_sin_nombre_10-4);}.cls-7{fill:url(#Degradado_sin_nombre_10-5);}.cls-8{fill:url(#Degradado_sin_nombre_10-6);}.cls-9{fill:url(#Degradado_sin_nombre_10-7);}.cls-10{fill:url(#Degradado_sin_nombre_10-8);}</style><linearGradient id="Degradado_sin_nombre_10" x1="213" y1="59.43" x2="237.08" y2="59.43" gradientUnits="userSpaceOnUse"><stop offset="0" stop-color="#65378d"/><stop offset="0.48" stop-color="#683a8e"/><stop offset="0.86" stop-color="#724393"/><stop offset="1" stop-color="#784896"/></linearGradient><linearGradient id="Degradado_sin_nombre_10-2" x1="24.38" y1="51.33" x2="78.65" y2="45.77" xlink:href="#Degradado_sin_nombre_10"/><linearGradient id="Degradado_sin_nombre_14" x1="20.11" y1="65.2" x2="48.53" y2="65.06" gradientUnits="userSpaceOnUse"><stop offset="0.17" stop-color="#65378d"/><stop offset="0.35" stop-color="#68388a"/><stop offset="0.49" stop-color="#723b82"/><stop offset="0.62" stop-color="#834074"/><stop offset="0.74" stop-color="#9a4761"/><stop offset="0.86" stop-color="#b95147"/><stop offset="0.97" stop-color="#de5c29"/><stop offset="1" stop-color="#eb601e"/></linearGradient><linearGradient id="Degradado_sin_nombre_10-3" x1="68.97" y1="95.04" x2="113.65" y2="95.04" xlink:href="#Degradado_sin_nombre_10"/><linearGradient id="Degradado_sin_nombre_10-4" x1="186.41" y1="94.83" x2="215.3" y2="94.83" xlink:href="#Degradado_sin_nombre_10"/><linearGradient id="Degradado_sin_nombre_10-5" x1="220.54" y1="94.97" x2="229.54" y2="94.97" xlink:href="#Degradado_sin_nombre_10"/><linearGradient id="Degradado_sin_nombre_10-6" x1="118.81" y1="95.1" x2="133.6" y2="95.1" xlink:href="#Degradado_sin_nombre_10"/><linearGradient id="Degradado_sin_nombre_10-7" x1="136.46" y1="95.23" x2="182.13" y2="95.23" xlink:href="#Degradado_sin_nombre_10"/><linearGradient id="Degradado_sin_nombre_10-8" x1="234.43" y1="94.83" x2="271.69" y2="94.83" xlink:href="#Degradado_sin_nombre_10"/></defs><g id="ver_naranja" data-name="ver naranja"><polygon class="cls-1" points="225.09 47.32 223.34 55.4 219.58 53.98 220.92 57.77 213 59.47 220.96 61.22 219.57 64.95 223.33 63.6 225.09 71.55 226.79 63.58 230.5 64.97 229.19 61.16 237.08 59.47 229.15 57.84 230.56 54.05 226.71 55.44 225.09 47.32"/></g><g id="ver._morado" data-name="ver. morado"><g id="logo_morado" data-name="logo morado"><path class="cls-2" d="M51.37,75.83A27.27,27.27,0,1,1,78.64,48.56,27.3,27.3,0,0,1,51.37,75.83Zm0-45.45A18.19,18.19,0,1,0,69.56,48.56,18.2,18.2,0,0,0,51.37,30.38Z"/><path class="cls-3" d="M32.59,117.91c-2.39,0-5.64-1.21-8.1-6.73-9.52-21.43-.66-61.89-.28-63.6l8.87,2c-.09.39-8.59,39.25-.28,57.94l.09.21c5.2-8.44,12.75-50-2.71-92.23l8.53-3.13c10.27,28,10.34,54.32,9.47,67.5-.37,5.54-2.71,33.43-12.84,37.54A7.75,7.75,0,0,1,32.59,117.91Z"/><path class="cls-4" d="M33.2,49.77A46.38,46.38,0,0,0,30.39,66a24.42,24.42,0,0,0,4.73,4.47s-.78-6.58,1-12C34.23,55.4,33.2,49.77,33.2,49.77Z"/><path class="cls-4" d="M48.52,66.53a18.16,18.16,0,0,0,5.66,0c1.26,3.1,0,9.17,0,9.17a29,29,0,0,1-5.76,0C48.52,70.76,48.52,66.53,48.52,66.53Z"/></g><g id="olaris"><path class="cls-5" d="M91.31,117.92C79,117.92,69,107.66,69,95S79,72.16,91.31,72.16,113.65,82.43,113.65,95,103.63,117.92,91.31,117.92Zm0-36.54A13.67,13.67,0,1,0,104.65,95,13.52,13.52,0,0,0,91.31,81.38Z"/><path class="cls-6" d="M186.41,72.45H195v4.81h.18a13.83,13.83,0,0,1,20.12-1.89L209,83.24A8.78,8.78,0,0,0,203.37,81a7.82,7.82,0,0,0-5.65,2.27q-2.64,2.24-2.72,7.21v27.33h-8.59Z"/><rect class="cls-7" x="220.54" y="72.16" width="9" height="45.62"/><path class="cls-8" d="M118.81,71.89h8.59v37.92c0,1.5,1.08,2.26,3.22,2.26h3v6.23h-3.83a15,15,0,0,1-7.74-1.8q-3.23-1.84-3.22-6.19Z"/><path class="cls-9" d="M182.13,95a22.71,22.71,0,0,0-1.71-8.66c-.19-1-.42-2.09-.68-3.19-.87-3.62-2.49-10.37-8.18-10.54a6.39,6.39,0,0,0-3.86,1.16,22.84,22.84,0,1,0,2.49,41.3,19.57,19.57,0,0,0,7.32,3.23l2-8.16a9.08,9.08,0,0,1-2.35-.92A22.77,22.77,0,0,0,182.13,95Zm-22.84,12.84a12.84,12.84,0,0,1,0-25.68,12.66,12.66,0,0,1,3,.38,47,47,0,0,0-1.67,8.57l-.06.47c-.52,6.55.68,11.67,2.72,15.6A12.8,12.8,0,0,1,159.29,107.84ZM170,102.11c-3.09-3.34-3.57-10.43,0-14.56C170,87.55,174.88,95.31,170,102.11Z"/><path class="cls-10" d="M244.66,106.09a7.08,7.08,0,0,0,2.14,2.51,9.26,9.26,0,0,0,3.13,1.42,14.82,14.82,0,0,0,3.72.47,18.64,18.64,0,0,0,2.79-.22,9.69,9.69,0,0,0,2.79-.83,6.21,6.21,0,0,0,2.17-1.71,4.26,4.26,0,0,0,.87-2.76,3.85,3.85,0,0,0-1.15-2.91,8.87,8.87,0,0,0-3-1.86,29.18,29.18,0,0,0-4.21-1.3q-2.35-.57-4.78-1.24a43.7,43.7,0,0,1-4.83-1.52,16.71,16.71,0,0,1-4.22-2.33,10.91,10.91,0,0,1-3-3.56,10.77,10.77,0,0,1-1.15-5.18,11.5,11.5,0,0,1,1.46-5.92A13.18,13.18,0,0,1,241.19,75a16.83,16.83,0,0,1,5.33-2.48,23,23,0,0,1,5.95-.8,28.53,28.53,0,0,1,6.67.77A16.77,16.77,0,0,1,264.81,75a12.76,12.76,0,0,1,3.94,4.44,13.56,13.56,0,0,1,1.45,6.54h-9.42a7.76,7.76,0,0,0-.84-3.29,5.32,5.32,0,0,0-1.89-2,7.93,7.93,0,0,0-2.69-1.06,17.19,17.19,0,0,0-3.32-.31,11.14,11.14,0,0,0-2.36.25,6.31,6.31,0,0,0-2.14.87A5.43,5.43,0,0,0,246,81.91a4.17,4.17,0,0,0-.62,2.35,4,4,0,0,0,.5,2.11,4.37,4.37,0,0,0,1.95,1.49,25.14,25.14,0,0,0,4,1.36q2.58.69,6.73,1.74c.83.16,2,.46,3.44.9a16.4,16.4,0,0,1,4.37,2.08,13.11,13.11,0,0,1,3.75,3.81,10.81,10.81,0,0,1,1.58,6.11,13.63,13.63,0,0,1-1.17,5.64A12.35,12.35,0,0,1,267,114a16.82,16.82,0,0,1-5.76,3,27.39,27.39,0,0,1-8,1,27.92,27.92,0,0,1-7.1-.9,18,18,0,0,1-6.08-2.82,13.9,13.9,0,0,1-4.18-4.9,14.65,14.65,0,0,1-1.49-7.06h9.42A8.12,8.12,0,0,0,244.66,106.09Z"/></g></g></svg>